<svg xmlns:dc="http://purl.org/dc/elements/1.1/" xmlns:cc="http://creativecommons.org/ns#" xmlns:rdf="http://www.w3.org/1999/02/22-rdf-syntax-ns#" xmlns:svg="http://www.w3.org/2000/svg" xmlns="http://www.w3.org/2000/svg" xmlns:sodipodi="http://sodipodi.sourceforge.net/DTD/sodipodi-0.dtd" xmlns:inkscape="http://www.inkscape.org/namespaces/inkscape" version="1.1" x="0px" y="0px" viewBox="0 0 100 125"><g transform="translate(0,-952.36218)"><path style="text-indent:0;text-transform:none;direction:ltr;block-progression:tb;baseline-shift:baseline;color:#000000;enable-background:accumulate;" d="m 38.81262,983.37887 c -1.03192,0.022 -2.01772,0.2968 -2.875,0.8125 -1.71456,1.0315 -2.88846,2.9862 -2.9375,5.2188 a 2.0002,2.0002 0 0 0 0,0.031 l 0,25.81253 a 2.0002,2.0002 0 0 0 0,0.062 c 0.0492,2.2324 1.22509,4.1503 2.9375,5.1875 1.71241,1.0371 4.00287,1.1745 5.96875,0.094 a 2.0002,2.0002 0 0 0 0.0625,-0.031 l 22.03125,-12.9687 c 1.78006,-1.0484 3,-3.0164 3,-5.25 0,-2.2337 -1.21984,-4.17053 -3,-5.21883 a 2.0002,2.0002 0 0 0 0,-0.031 l -22.0625,-12.9375 a 2.0002,2.0002 0 0 0 -0.0312,-0.031 c -0.98144,-0.5395 -2.06183,-0.7722 -3.09375,-0.75 z m 0.0937,3.9688 c 0.32795,-0.01 0.67325,0.099 1.0625,0.3125 l 22,12.90623 c 0.62106,0.3657 1.03125,0.9787 1.03125,1.7813 0,0.8025 -0.41009,1.4466 -1.03125,1.8125 l -22,12.9375 c -0.7755,0.4263 -1.41397,0.336 -1.96875,0 -0.54779,-0.3318 -0.96959,-0.9304 -1,-1.8438 l 0,-0.031 0,-25.71873 0,-0.062 c 0.0397,-0.8933 0.46125,-1.4884 1,-1.8125 0.27633,-0.1663 0.5783,-0.2725 0.90625,-0.2813 z" fill="#000000" fill-opacity="1" stroke="none" marker="none" visibility="visible" display="inline" overflow="visible"/></g><text x="0" y="115" fill="#000000" font-size="5px" font-weight="bold" font-family="'Helvetica Neue', Helvetica, Arial-Unicode, Arial, Sans-serif">Created by Eagle Eye</text><text x="0" y="120" fill="#000000" font-size="5px" font-weight="bold" font-family="'Helvetica Neue', Helvetica, Arial-Unicode, Arial, Sans-serif">from the Noun Project</text></svg>